<?xml version="1.0" encoding="UTF-8"?>
<svg id="Layer_2" data-name="Layer 2" xmlns="http://www.w3.org/2000/svg" viewBox="0 0 75.71 69.05">
  <g id="Layer_1-2" data-name="Layer 1">
    <g>
      <g>
        <path d="M9.9,62.52c.15-.1.26-.16.34-.16.06,0,.11.02.15.06.04.04.06.09.06.15,0,.13-.09.21-.28.26l-.38.74c-.09.21-.17.41-.21.62-.05.21-.07.42-.07.63,0,.27.07.7.2,1.3.5-.33.96-.78,1.4-1.33,0-.14,0-.24,0-.31,0-.72.11-1.28.32-1.69.14-.27.29-.41.46-.41.1,0,.18.04.25.13.07.09.1.21.1.38,0,.14-.03.29-.08.47-.09.29-.19.56-.31.81,0,.82.06,1.47.19,1.95.39-.27.77-.6,1.14-1.01.27-.3.47-.6.61-.93.14-.32.21-.58.21-.79,0-.1-.04-.23-.11-.39-.08-.19-.12-.32-.12-.41s.03-.16.09-.22.14-.09.23-.09c.11,0,.19.05.26.15.06.1.1.29.1.55,0,.67-.29,1.37-.87,2.11-.58.74-1.29,1.3-2.13,1.7-.1-.35-.2-.88-.29-1.58-.44.44-.72.71-.82.8-.21.18-.42.33-.62.46-.2.13-.41.24-.64.33-.02-.19-.07-.48-.16-.9-.11-.58-.17-1-.17-1.25,0-.34.08-.67.25-1,.16-.33.41-.61.74-.86-.59.02-1.01.08-1.26.21-.17.08-.25.18-.25.29,0,.04.02.11.06.21.04.09.05.15.05.2,0,.06-.02.11-.06.15-.04.04-.1.06-.16.06-.08,0-.16-.04-.22-.11s-.09-.18-.09-.32c0-.26.12-.47.35-.63.34-.24.93-.35,1.78-.33Z"/>
        <path d="M16.7,62.52c.15-.1.26-.16.34-.16.06,0,.11.02.15.06.04.04.06.09.06.15,0,.13-.09.21-.28.26l-.38.74c-.09.21-.17.41-.21.62-.05.21-.07.42-.07.63,0,.27.07.7.2,1.3.5-.33.96-.78,1.4-1.33,0-.14,0-.24,0-.31,0-.72.11-1.28.32-1.69.14-.27.29-.41.46-.41.1,0,.18.04.25.13.07.09.1.21.1.38,0,.14-.03.29-.08.47-.09.29-.19.56-.31.81,0,.82.06,1.47.19,1.95.39-.27.77-.6,1.14-1.01.27-.3.47-.6.61-.93.14-.32.21-.58.21-.79,0-.1-.04-.23-.11-.39-.08-.19-.12-.32-.12-.41s.03-.16.09-.22.14-.09.23-.09c.11,0,.19.05.26.15.06.1.1.29.1.55,0,.67-.29,1.37-.87,2.11-.58.74-1.29,1.3-2.13,1.7-.1-.35-.2-.88-.29-1.58-.44.44-.72.71-.82.8-.21.18-.42.33-.62.46-.2.13-.41.24-.64.33-.02-.19-.07-.48-.16-.9-.11-.58-.17-1-.17-1.25,0-.34.08-.67.25-1,.16-.33.41-.61.74-.86-.59.02-1.01.08-1.26.21-.17.08-.25.18-.25.29,0,.04.02.11.06.21.04.09.05.15.05.2,0,.06-.02.11-.06.15-.04.04-.1.06-.16.06-.08,0-.16-.04-.22-.11s-.09-.18-.09-.32c0-.26.12-.47.35-.63.34-.24.93-.35,1.78-.33Z"/>
        <path d="M23.5,62.52c.15-.1.26-.16.34-.16.06,0,.11.02.15.06.04.04.06.09.06.15,0,.13-.09.21-.28.26l-.38.74c-.09.21-.17.41-.21.62-.05.21-.07.42-.07.63,0,.27.07.7.2,1.3.5-.33.96-.78,1.4-1.33,0-.14,0-.24,0-.31,0-.72.11-1.28.32-1.69.14-.27.29-.41.46-.41.1,0,.18.04.25.13.07.09.1.21.1.38,0,.14-.03.29-.08.47-.09.29-.19.56-.31.81,0,.82.06,1.47.19,1.95.39-.27.77-.6,1.14-1.01.27-.3.47-.6.61-.93.14-.32.21-.58.21-.79,0-.1-.04-.23-.11-.39-.08-.19-.12-.32-.12-.41s.03-.16.09-.22.14-.09.23-.09c.11,0,.19.05.26.15.06.1.1.29.1.55,0,.67-.29,1.37-.87,2.11-.58.74-1.29,1.3-2.13,1.7-.1-.35-.2-.88-.29-1.58-.44.44-.72.71-.82.8-.21.18-.42.33-.62.46-.2.13-.41.24-.64.33-.02-.19-.07-.48-.16-.9-.11-.58-.17-1-.17-1.25,0-.34.08-.67.25-1,.16-.33.41-.61.74-.86-.59.02-1.01.08-1.26.21-.17.08-.25.18-.25.29,0,.04.02.11.06.21.04.09.05.15.05.2,0,.06-.02.11-.06.15-.04.04-.1.06-.16.06-.08,0-.16-.04-.22-.11s-.09-.18-.09-.32c0-.26.12-.47.35-.63.34-.24.93-.35,1.78-.33Z"/>
        <path d="M28.69,65.43c.13,0,.23.05.32.14.09.1.13.22.13.36,0,.21-.05.38-.15.5-.1.12-.23.18-.38.18-.13,0-.23-.04-.32-.13-.09-.09-.13-.2-.13-.34,0-.21.06-.38.18-.54.09-.11.21-.17.35-.17Z"/>
        <path d="M31.85,61.63l.78-.3-.35,1.37h1.01l-.08.35h-1.01l-.43,1.64c-.14.49-.2.83-.2,1.02,0,.09.02.15.06.19.04.04.09.06.15.06.1,0,.26-.06.46-.18.27-.16.53-.34.78-.54l.19.22c-.71.54-1.19.87-1.43.99-.24.12-.43.18-.58.18-.12,0-.22-.04-.29-.13-.07-.09-.11-.23-.11-.43,0-.23.06-.59.19-1.07l.5-1.94h-.79l.09-.35h.79l.27-1.07Z"/>
        <path d="M36.77,62.89c-.3.08-.57.12-.82.12-.14,0-.29,0-.45-.02-.23-.03-.39-.04-.46-.04-.1,0-.17.02-.22.07-.05.05-.08.1-.08.18,0,.11.06.17.18.18.15.02.22.08.22.2,0,.06-.02.1-.07.15-.04.04-.1.07-.16.07-.12,0-.23-.06-.32-.17-.1-.12-.15-.26-.15-.43,0-.22.09-.41.28-.57s.42-.24.69-.24c.14,0,.34.02.58.06.39.06.68.09.85.09s.34-.06.49-.18c.07-.05.13-.08.18-.08.04,0,.07.01.1.04.03.02.04.05.04.07,0,.03-.02.07-.05.11-.11.14-.36.39-.76.77l-1.51,1.45c-.44.42-.81.76-1.1,1.02.19-.02.33-.03.43-.03.15,0,.28.01.4.04.12.02.31.08.58.17.35.12.63.18.85.18.14,0,.24-.03.32-.1s.11-.14.11-.24c0-.06-.03-.13-.08-.23-.04-.1-.07-.17-.07-.22,0-.08.03-.15.08-.2.05-.06.12-.08.2-.08.09,0,.17.04.24.12s.09.18.09.3c0,.18-.07.38-.2.58-.13.2-.3.35-.5.46-.2.11-.45.16-.75.16-.24,0-.6-.07-1.07-.21-.39-.11-.68-.17-.86-.17-.11,0-.24.06-.39.17-.08.07-.16.11-.22.11-.12,0-.18-.03-.18-.09s.03-.12.1-.2c.18-.21.64-.66,1.39-1.33.5-.46.94-.87,1.32-1.24l.77-.76Z"/>
        <path d="M40.5,62.38c.32,0,.58.13.8.38.21.25.32.61.32,1.06,0,.72-.25,1.37-.76,1.95s-1.04.86-1.61.86c-.35,0-.63-.11-.84-.34-.21-.23-.32-.54-.32-.93,0-.68.2-1.31.59-1.89.49-.72,1.1-1.08,1.84-1.08ZM40.09,62.75c-.28,0-.54.2-.8.59s-.39.94-.39,1.64c0,.42.08.76.24,1,.12.18.27.27.47.27.27,0,.52-.17.75-.51.29-.44.43-.98.43-1.64,0-.49-.07-.84-.2-1.04s-.3-.31-.5-.31Z"/>
        <path d="M42.25,62.7h1.17c.19-.81.41-1.42.66-1.82.25-.4.57-.71.97-.94.4-.23.77-.34,1.12-.34.2,0,.35.04.45.12.1.08.15.17.15.28,0,.1-.03.18-.1.24s-.16.1-.27.1-.33-.03-.65-.1c-.16-.03-.28-.05-.37-.05-.21,0-.41.13-.58.4s-.31.62-.42,1.08l-.25,1.04h1.29l-.08.35h-1.31l-.76,3.12c-.24.95-.62,1.67-1.14,2.15s-1.09.73-1.7.73c-.21,0-.36-.04-.47-.12-.11-.08-.16-.18-.16-.3,0-.1.04-.18.11-.24s.18-.09.31-.09c.07,0,.17,0,.3.02.23.03.45.04.65.04.32,0,.56-.08.7-.23s.29-.52.44-1.11l.99-3.98h-1.17l.09-.35Z"/>
        <path d="M45.43,63.51l-.21-.17c.33-.36.62-.61.89-.76.27-.15.5-.23.68-.23.1,0,.18.02.24.07s.08.11.08.19c0,.09-.11.49-.32,1.2-.34,1.16-.52,1.85-.52,2.09,0,.05.01.08.03.11.02.03.05.05.07.05.1,0,.37-.2.8-.61l.19.19c-.45.42-.77.69-.98.81s-.37.18-.5.18c-.11,0-.2-.04-.27-.11-.07-.07-.1-.17-.1-.3,0-.41.24-1.4.73-2.98.02-.07.03-.14.03-.2,0-.06-.03-.1-.09-.1-.06,0-.14.03-.22.08s-.27.22-.55.5ZM47.35,60.28c.1,0,.18.03.25.1.07.07.1.15.1.26,0,.14-.05.27-.15.38-.1.11-.21.16-.33.16-.1,0-.18-.03-.24-.1-.06-.07-.1-.16-.1-.27,0-.15.05-.27.14-.37.09-.1.21-.15.34-.15Z"/>
        <path d="M51.01,62.3l.32-.07-.37,1.24c-.15.49-.28,1.06-.42,1.7-.07.35-.11.57-.11.67s.04.15.12.15c.05,0,.14-.03.25-.1.2-.12.4-.27.58-.45l.16.19c-.37.34-.61.54-.71.62-.21.14-.41.25-.6.32-.12.05-.24.07-.36.07-.08,0-.15-.02-.19-.06-.04-.04-.06-.1-.06-.17,0-.05.01-.12.04-.2l.2-.66c-.28.34-.61.62-1,.86-.24.15-.46.22-.65.22-.19,0-.33-.07-.43-.2-.14-.18-.21-.41-.21-.7,0-.35.09-.73.28-1.15.18-.42.43-.81.74-1.15.31-.35.63-.6.98-.76.26-.12.6-.19,1.02-.19.1,0,.21,0,.32.02l.12-.19ZM50.4,63.04c-.18-.04-.32-.05-.44-.05-.29,0-.55.08-.77.24-.22.16-.42.45-.61.87-.19.42-.28.84-.28,1.25,0,.22.04.38.11.48.08.1.17.15.29.15.22,0,.47-.12.72-.36.26-.24.45-.59.57-1.05l.41-1.52Z"/>
        <path d="M52.29,65.43c.13,0,.23.05.32.14.09.1.13.22.13.36,0,.21-.05.38-.15.5-.1.12-.23.18-.38.18-.13,0-.23-.04-.32-.13-.09-.09-.13-.2-.13-.34,0-.21.06-.38.18-.54.09-.11.21-.17.35-.17Z"/>
        <path d="M57.41,62.3l.32-.07-.37,1.24c-.15.49-.28,1.06-.42,1.7-.07.35-.11.57-.11.67s.04.15.12.15c.05,0,.14-.03.25-.1.2-.12.4-.27.58-.45l.16.19c-.37.34-.61.54-.71.62-.21.14-.41.25-.6.32-.12.05-.24.07-.36.07-.08,0-.15-.02-.19-.06-.04-.04-.06-.1-.06-.17,0-.05.01-.12.04-.2l.2-.66c-.28.34-.61.62-1,.86-.24.15-.46.22-.65.22-.19,0-.33-.07-.43-.2-.14-.18-.21-.41-.21-.7,0-.35.09-.73.28-1.15.18-.42.43-.81.74-1.15.31-.35.63-.6.98-.76.26-.12.6-.19,1.02-.19.1,0,.21,0,.32.02l.12-.19ZM56.8,63.04c-.18-.04-.32-.05-.44-.05-.29,0-.55.08-.77.24-.22.16-.42.45-.61.87-.19.42-.28.84-.28,1.25,0,.22.04.38.11.48.08.1.17.15.29.15.22,0,.47-.12.72-.36.26-.24.45-.59.57-1.05l.41-1.52Z"/>
        <path d="M59.18,66.49h-.73l.34-1.31c.17-.64.31-1.26.43-1.84.03-.14.04-.23.04-.27,0-.08-.04-.12-.11-.12-.05,0-.12.03-.22.1-.1.07-.28.23-.55.5l-.15-.17c.31-.34.62-.59.93-.75.31-.17.55-.25.72-.25.06,0,.1.01.14.04s.05.06.05.1-.02.16-.06.34l-.21.88c.33-.52.7-.96,1.12-1.33.2-.18.37-.26.5-.26.1,0,.18.03.24.1s.1.14.1.22-.03.16-.09.22-.22.14-.48.22c-.24.08-.44.18-.59.29-.15.11-.32.29-.5.52-.18.23-.31.44-.38.61-.07.17-.18.58-.33,1.21l-.22.95Z"/>
        <path d="M62.64,61.63l.78-.3-.35,1.37h1.01l-.08.35h-1.01l-.43,1.64c-.14.49-.2.83-.2,1.02,0,.09.02.15.06.19.04.04.09.06.15.06.1,0,.26-.06.46-.18.27-.16.53-.34.78-.54l.19.22c-.71.54-1.19.87-1.43.99-.24.12-.43.18-.58.18-.12,0-.22-.04-.29-.13-.07-.09-.11-.23-.11-.43,0-.23.06-.59.19-1.07l.5-1.94h-.79l.09-.35h.79l.27-1.07Z"/>
      </g>
      <path d="M37.92,31.98l-.95,4.61c-.02.1-.03.17,0,.24.09-.22.35-.58.59-.76.73-.54,2-.22,2.46.52.49.78-.08,2.23-.6,3.19-.14.26-.12.22-.23.43-.15.34-.25.41.21.06.57-.46,1.94-1.29,2.27-3.29.11-.67.29-1.73-.31-2.54-.64-.88-1.94-1.18-3.25-.73-.04-.34-.13-1.38-.17-1.72Z"/>
      <path d="M58.43,18.72s-1.5-.92-1.61-2.79c-.11-1.87-.71-5.81,0-8.4-1.53,0-11.08.55-11.96,0,0,1.24,1.31,2.72,0,11.88,1.33,0,21.06-1.17,21.06,18.45,0,11.36-15.36,12.12-17.05,12.12-11.46,0-16.22-3.25-27.78-3.25-2.38,0-4.4.08-6.16.2-6.59.42-12.32,4.67-14.62,10.86-.19.5-.3.83-.3.92.17,0,.53-.98,2.88-2.33,3.31-1.9,8.01-4.03,18.01-4.03,11.88,0,16.62,3.86,27.92,3.86,0,0,22.91.51,22.91-17.16,0-15.2-11.7-19.46-13.3-20.34Z"/>
      <path d="M57.9,18.94s4.42-8.77,4.68-9.48,2.45-2.27,3.72-1.78,5.32,2.83,9.41,2.45c-.59,2.04-1.34.04-3.05,5.2s-1.93,5.2-2.57,5.2-2.86-1.92-4.39-2.37c0,0-2.34-2.13-5.17,2.22-2.83,4.35-2.64-1.45-2.64-1.45Z"/>
      <rect x="50.25" y="2.24" width=".7" height="5.69"/>
      <g>
        <rect x="48.36" y="4.32" width=".7" height="3.61"/>
        <circle cx="47.78" cy="4.23" r="1.27"/>
      </g>
      <g>
        <rect x="52.34" y="4.32" width=".7" height="3.61" transform="translate(105.38 12.26) rotate(180)"/>
        <circle cx="53.62" cy="4.23" r="1.27"/>
      </g>
      <rect x="24.1" y="31.33" width=".51" height="2.63" transform="translate(48.71 65.3) rotate(180)"/>
      <circle cx="24.35" cy="31.29" r=".93"/>
      <rect x="39.21" y="31.39" width=".51" height="3.04" transform="translate(78.93 65.82) rotate(180)"/>
      <circle cx="39.47" cy="31.29" r=".93"/>
      <circle cx="50.6" cy="1.27" r="1.27"/>
      <path d="M16.14,32.37l-1.26,4.45h18.34l-.8,1.85s2.06,1.38,2.02,5.83c1.33-1.43,1.46-3.64,1.46-5.2s-1.33-2.16-1.33-2.95,1.03-2.84,1.03-2.84l-19.33.02s-.02-.42-.13-1.16Z"/>
      <path d="M58.18,37.7c.05-2.59-.43-3.11-.62-3.37-1.1-1.52-3.21-.93-3.51-.83-.03-.39-.07-.78-.1-1.16l-.99,4.46c1.04.1,1.94.15,2.67.17.19,0,.27,0,.33.03,0,0,.03,0,.05.02"/>
      <path d="M55.66,36.92c.2.07,1.62,2.2,1.03,5.64-.09.56-.26,1.24-.54,1.99.28-.1.52-.31.6-.45,1.1-1.93,1.39-5.15,1.43-6.6"/>
      <path d="M15.17,39.5s1.04.56,1.01,5c1.33-1.43,2.72-4.1.46-6.36l-1.47,1.36Z"/>
      <path d="M44.63,32.77l-1.6,4.05c2.13,0,4.27,0,6.4,0-.2.32-.29.96-.22,1.81.06.78.76,2.08,1.92,3.02-.18.49-.36.99-.55,1.48-2.05.07-4.1.15-6.15.22-1.28,1.83-1.61,3.23-1.03,3.25.95.03,5.38.66,7.46-1.43,1.92-1.92,1.53-4.58,1.53-5.74,0-1.56-2.12-2.29-2.12-3.08s1.03-2.84,1.03-2.84l-6.87.02s.57-1.58.21-.76Z"/>
      <path d="M43.04,36.78c-.02.1.56-.34.57-.24.07.76.35,4.28-.21,5.89.58-1.09.63-1.62,1.39-1.92.19-.07.61-.04,1.07.05.86.15,1.58-.66,1.35-1.5h0c.03-.26.07-.51.1-.77h-1.3c-.69,0-1.24-.59-1.19-1.28l.45-6.71-.86,2.21c-.03.1-.39,1.01-.45,1.21l-.9,3.08Z"/>
    </g>
  </g>
</svg>