<?xml version="1.0" encoding="UTF-8"?>
<svg id="Layer_2" data-name="Layer 2" xmlns="http://www.w3.org/2000/svg" viewBox="0 0 105.45 73.29">
  <defs>
    <style>
      .cls-1 {
        font-family: MonotypeCorsiva, 'Monotype Corsiva';
        font-size: 10px;
      }
    </style>
  </defs>
  <g id="Layer_1-2" data-name="Layer 1">
    <g>
      <text class="cls-1" transform="translate(24.43 66.49)"><tspan x="0" y="0">www.tzofia.art</tspan></text>
      <path d="M55.32,31.98l-.95,4.61c-.02.1-.03.17,0,.24.09-.22.35-.58.59-.76.73-.54,2-.22,2.46.52.49.78-.08,2.23-.6,3.19-.14.26-.12.22-.23.43-.15.34-.25.41.21.06.57-.46,1.94-1.29,2.27-3.29.11-.67.29-1.73-.31-2.54-.64-.88-1.94-1.18-3.25-.73-.04-.34-.13-1.38-.17-1.72Z"/>
      <path d="M75.82,18.72s-1.5-.92-1.61-2.79c-.11-1.87-.71-5.81,0-8.4-1.53,0-11.08.55-11.96,0,0,1.24,1.31,2.72,0,11.88,1.33,0,21.06-1.17,21.06,18.45,0,11.36-15.36,12.12-17.05,12.12-11.46,0-16.22-3.25-27.78-3.25-2.38,0-4.4.08-6.16.2-6.59.42-12.32,4.67-14.62,10.86-.19.5-.3.83-.3.92.17,0,.53-.98,2.88-2.33,3.31-1.9,8.01-4.03,18.01-4.03,11.88,0,16.62,3.86,27.92,3.86,0,0,22.91.51,22.91-17.16,0-15.2-11.7-19.46-13.3-20.34Z"/>
      <path d="M75.3,18.94s4.42-8.77,4.68-9.48,2.45-2.27,3.72-1.78,5.32,2.83,9.41,2.45c-.59,2.04-1.34.04-3.05,5.2s-1.93,5.2-2.57,5.2-2.86-1.92-4.39-2.37c0,0-2.34-2.13-5.17,2.22-2.83,4.35-2.64-1.45-2.64-1.45Z"/>
      <rect x="67.65" y="2.24" width=".7" height="5.69"/>
      <g>
        <rect x="65.76" y="4.32" width=".7" height="3.61"/>
        <circle cx="65.18" cy="4.23" r="1.27"/>
      </g>
      <g>
        <rect x="69.74" y="4.32" width=".7" height="3.61" transform="translate(140.18 12.26) rotate(180)"/>
        <circle cx="71.02" cy="4.23" r="1.27"/>
      </g>
      <rect x="41.5" y="31.33" width=".51" height="2.63" transform="translate(83.51 65.3) rotate(180)"/>
      <circle cx="41.75" cy="31.29" r=".93"/>
      <rect x="56.61" y="31.39" width=".51" height="3.04" transform="translate(113.73 65.82) rotate(180)"/>
      <circle cx="56.86" cy="31.29" r=".93"/>
      <circle cx="68" cy="1.27" r="1.27"/>
      <path d="M33.54,32.37l-1.26,4.45h18.34l-.8,1.85s2.06,1.38,2.02,5.83c1.33-1.43,1.46-3.64,1.46-5.2s-1.33-2.16-1.33-2.95,1.03-2.84,1.03-2.84l-19.33.02s-.02-.42-.13-1.16Z"/>
      <path d="M75.58,37.7c.05-2.59-.43-3.11-.62-3.37-1.1-1.52-3.21-.93-3.51-.83-.03-.39-.07-.78-.1-1.16l-.99,4.46c1.04.1,1.94.15,2.67.17.19,0,.27,0,.33.03,0,0,.03,0,.05.02"/>
      <path d="M73.06,36.92c.2.07,1.62,2.2,1.03,5.64-.09.56-.26,1.24-.54,1.99.28-.1.52-.31.6-.45,1.1-1.93,1.39-5.15,1.43-6.6"/>
      <path d="M32.57,39.5s1.04.56,1.01,5c1.33-1.43,2.72-4.1.46-6.36l-1.47,1.36Z"/>
      <path d="M62.03,32.77l-1.6,4.05c2.13,0,4.27,0,6.4,0-.2.32-.29.96-.22,1.81.06.78.76,2.08,1.92,3.02-.18.49-.36.99-.55,1.48-2.05.07-4.1.15-6.15.22-1.28,1.83-1.61,3.23-1.03,3.25.95.03,5.38.66,7.46-1.43,1.92-1.92,1.53-4.58,1.53-5.74,0-1.56-2.12-2.29-2.12-3.08s1.03-2.84,1.03-2.84l-6.87.02s.57-1.58.21-.76Z"/>
      <path d="M60.44,36.78c-.02.1.56-.34.57-.24.07.76.35,4.28-.21,5.89.58-1.09.63-1.62,1.39-1.92.19-.07.61-.04,1.07.05.86.15,1.58-.66,1.35-1.5h0c.03-.26.07-.51.1-.77h-1.3c-.69,0-1.24-.59-1.19-1.28l.45-6.71-.86,2.21c-.03.1-.39,1.01-.45,1.21l-.9,3.08Z"/>
    </g>
  </g>
</svg>